<svg width="26" height="26" viewBox="0 0 26 26" fill="none" xmlns="http://www.w3.org/2000/svg">
<rect x="0.5" y="0.5" width="25" height="25" rx="4.5" fill="white" stroke="white"/>
<path fill-rule="evenodd" clip-rule="evenodd" d="M7.76271 8.04019C7.55183 8.10563 7.44209 8.24763 7.43251 8.46736C7.42812 8.56833 7.42938 9.21133 7.43533 9.89626L7.44617 11.1416L7.20873 11.4361C6.64482 12.1356 6.26703 13.0423 6.09664 14.1055C5.9827 14.8161 5.96345 17.6391 6.07153 17.7777C6.13515 17.8592 6.52741 17.8664 10.9136 17.8664C14.6647 17.8664 15.7001 17.8808 15.7496 17.9332C15.7982 17.9848 16.3612 18 18.2194 18C20.4534 18 20.6363 17.9931 20.765 17.9037C20.8413 17.8507 20.9253 17.747 20.9519 17.6732C20.9811 17.5916 21 15.7367 21 12.9489V8.35886L20.8529 8.18438L20.7058 8.0099L14.3119 8.00092C10.6307 7.99579 7.85214 8.01246 7.76271 8.04019ZM18.568 12.2971L18.555 15.9699L17.3073 15.9842L16.0596 15.9985L16.06 15.5301C16.0614 13.9474 16.4757 12.5769 17.1819 11.8182C17.5101 11.4657 17.933 11.1768 18.2177 11.1106C18.4191 11.0638 18.506 10.8814 18.421 10.6838C18.3902 10.612 18.3364 10.5418 18.3015 10.5276C18.2666 10.5134 16.0748 10.4968 13.4309 10.4906C8.79591 10.4799 8.61367 10.4832 8.34119 10.5828L8.05858 10.686L8.02631 10.0157C8.00857 9.6471 7.99395 9.18323 7.99385 8.98487L7.99365 8.62426H13.2873H18.5809L18.568 12.2971ZM20.3951 13.0049V17.3856H18.2273H16.0596V16.985V16.5843H17.4498H18.84L18.9874 16.4281L19.1347 16.272V12.4481V8.62426H19.7649H20.3951V13.0049ZM10.1723 11.3983C9.83848 11.8373 9.51927 12.4463 9.35039 12.9664C9.09813 13.7433 9.04585 14.1869 9.01702 15.7963L8.9905 17.2788H7.78106H6.57167L6.59632 15.7963C6.61729 14.535 6.6369 14.2421 6.72775 13.833C7.00975 12.5632 7.82945 11.3794 8.59829 11.1316C8.66776 11.1092 9.10453 11.0888 9.56883 11.0863L10.413 11.0817L10.1723 11.3983ZM13.7081 11.2019C13.687 11.2387 13.574 11.3935 13.4571 11.546C12.9016 12.2708 12.5411 13.2173 12.407 14.3032C12.3572 14.7063 12.3291 15.3565 12.3291 16.1062V17.2788H10.9357H9.54226L9.57246 15.8764C9.61178 14.0482 9.7181 13.4486 10.1668 12.5241C10.4129 12.0171 10.7326 11.6291 11.1325 11.3523L11.446 11.1351H12.5963C13.5035 11.1351 13.7385 11.1492 13.7081 11.2019ZM16.6016 11.5759C15.7505 12.7643 15.5051 13.7585 15.5051 16.0177V17.2806L14.207 17.2663L12.9088 17.2521L12.9113 15.9966C12.914 14.5876 12.9697 14.0635 13.1921 13.3549C13.4596 12.5025 13.8229 11.9244 14.3648 11.4885C14.7892 11.1471 14.8227 11.1395 15.9213 11.1372L16.9173 11.1351L16.6016 11.5759Z" fill="#FE5F49"/>
</svg>
