<svg width="26" height="26" viewBox="0 0 26 26" fill="none" xmlns="http://www.w3.org/2000/svg">
<rect x="0.5" y="0.5" width="25" height="25" rx="4.5" fill="white" stroke="white"/>
<path fill-rule="evenodd" clip-rule="evenodd" d="M12.5474 7.00515C12.5055 7.009 12.3472 7.02067 12.1955 7.03107C10.9525 7.11633 9.36525 7.43374 8.48403 7.77324C7.02538 8.33521 5.74438 9.39583 4.93896 10.7084C4.47235 11.4689 4.16611 12.3236 4.04316 13.2087C4.0014 13.5093 3.98622 14.1963 4.0143 14.5156C4.11569 15.669 4.51277 16.7274 5.21469 17.7152C6.11276 18.979 7.45747 19.9412 8.97564 20.4063C9.74136 20.6408 11.0055 20.8769 11.9767 20.9666C12.4078 21.0065 13.7012 21.012 14.1547 20.9759C15.9896 20.83 17.6645 20.4266 19.2717 19.7435C19.6012 19.6034 20.1618 19.3358 20.3797 19.2144L20.5081 19.1429V17.6326C20.5081 16.802 20.5037 16.1223 20.4983 16.1223C20.4929 16.1223 20.4265 16.1575 20.3509 16.2006C19.3997 16.7417 18.2304 17.1639 17.1252 17.3653C16.5161 17.4763 15.7039 17.5357 15.2737 17.5008C14.287 17.4207 13.4958 17.0636 12.8103 16.3888C12.5685 16.1507 12.3946 15.9139 12.2109 15.5722C11.6877 14.5993 11.6821 13.4474 12.1958 12.4623C12.5617 11.7605 13.1527 11.2044 13.8979 10.8609C14.4368 10.6125 14.9521 10.5036 15.5909 10.503C17.0779 10.5016 18.7589 10.9532 20.2228 11.7472C20.3431 11.8124 20.4565 11.8735 20.4748 11.8828C20.5064 11.8989 20.5081 11.8219 20.5081 10.3789V8.85801L20.3226 8.76012C18.5245 7.81096 16.3886 7.21219 14.1833 7.03902C13.8475 7.01265 12.7198 6.98931 12.5474 7.00515ZM13.5841 7.35265C14.7226 7.40314 15.663 7.53282 16.6942 7.78161C17.7918 8.0464 18.7159 8.37396 19.7139 8.85198L20.1467 9.05925V10.1478C20.1467 10.7465 20.1431 11.2363 20.1388 11.2363C20.1345 11.2363 19.9954 11.1738 19.8297 11.0972C18.6655 10.5597 17.3717 10.2434 15.9999 10.1608C14.8438 10.0912 13.9059 10.3432 13.0424 10.9554C12.8199 11.1131 12.4166 11.5021 12.2454 11.724C11.4463 12.7601 11.2348 14.0649 11.6717 15.2632C11.758 15.4999 11.9701 15.9049 12.1138 16.1075C12.7005 16.9344 13.5439 17.5022 14.5398 17.7408C14.8838 17.8232 15.2017 17.8584 15.6032 17.8584C17.0032 17.8584 18.5759 17.4982 19.8972 16.8751C20.0236 16.8154 20.1315 16.7666 20.1369 16.7666C20.1423 16.7666 20.1466 17.2599 20.1465 17.8628L20.1464 18.9591L19.9135 19.0749C18.1504 19.9521 16.175 20.482 14.0977 20.6352C13.6412 20.6689 12.4616 20.6643 12.0524 20.6273C10.7496 20.5095 9.33168 20.2104 8.51468 19.8812C7.02905 19.2826 5.79724 18.1913 5.07988 16.8382C4.71152 16.1434 4.4873 15.4382 4.39706 14.6905C4.36191 14.3991 4.3516 13.8596 4.37553 13.563C4.49984 12.0221 5.18665 10.6178 6.35449 9.51644C6.73933 9.15352 6.99356 8.95647 7.43042 8.68253C7.92768 8.3707 8.4805 8.11751 9.06632 7.93327C9.44918 7.81288 10.3281 7.62005 10.9332 7.52371C11.9111 7.36802 12.7336 7.31494 13.5841 7.35265ZM8.17365 10.1631C7.56979 10.228 7.01024 10.49 6.58361 10.9077C6.23973 11.2444 6.02843 11.6164 5.90403 12.1044C5.87517 12.2175 5.87152 12.4474 5.86606 14.4847C5.86201 16.0017 5.86654 16.7683 5.87985 16.8268C5.97363 17.2388 6.31561 17.6129 6.74361 17.7717C6.85103 17.8115 7.07387 17.8584 7.15584 17.8584H7.21167V15.1932C7.21167 12.9789 7.21619 12.5059 7.23839 12.3968C7.31456 12.0224 7.56555 11.7128 7.92581 11.5489C8.6345 11.2265 9.49633 11.6145 9.67613 12.337C9.72623 12.5384 9.70649 12.8134 9.62749 13.0147C9.49331 13.3566 9.18226 13.6274 8.80001 13.7351C8.56164 13.8023 8.15368 13.7721 7.93072 13.6707C7.88703 13.6508 7.8486 13.6346 7.84533 13.6346C7.84206 13.6346 7.83939 13.94 7.83939 14.3132V14.9918L7.93321 15.0108C8.36712 15.0983 8.97952 15.0539 9.37849 14.9059C10.4561 14.5063 11.1219 13.5529 11.0661 12.4892C11.0123 11.462 10.3131 10.5976 9.27206 10.2711C8.95599 10.1719 8.50435 10.1275 8.17365 10.1631ZM18.0352 12.9545V13.6525H18.6535H19.2717V14.6995V15.7465H20.508H21.7442L21.7491 14.704L21.7541 13.6614L22.377 13.6567L23 13.652V12.9542V12.2565H20.5176H18.0352V12.9545ZM22.6291 12.9545V13.3035L22.0061 13.3082L21.3831 13.3129V14.3599V15.4068L20.5129 15.4021L19.6426 15.3975L19.6377 14.355L19.6328 13.3124H19.0147H18.3967V12.9544V12.5964L20.5129 12.6009L22.6291 12.6055V12.9545Z" fill="#FE5F49"/>
</svg>
