<svg width="26" height="26" viewBox="0 0 26 26" fill="none" xmlns="http://www.w3.org/2000/svg">
<rect x="0.5" y="0.5" width="25" height="25" rx="4.5" fill="white" stroke="white"/>
<path fill-rule="evenodd" clip-rule="evenodd" d="M16.8973 6.80309L14.5135 7.60102V12.4938V17.3865L16.9351 18.1933L19.3568 19L19.6784 18.8298L20 18.6595V12.4904V6.32128L19.7059 6.15814C19.5441 6.06843 19.3824 5.99731 19.3465 6.00008C19.3105 6.00292 18.2084 6.36423 16.8973 6.80309ZM6 12.4938V18.6937H11.1459H16.2919V18.4441C16.2919 18.0262 16.2344 18.0215 11.1939 18.0215H6.68108V12.5311V7.04078L11.0135 7.03689C15.3423 7.03308 15.3463 7.03293 15.8 6.86195C16.1813 6.71815 16.2579 6.65899 16.278 6.49227L16.302 6.29379H11.1509H6V12.4938ZM19.0919 12.4938C19.0919 15.7394 19.0659 18.3949 19.0342 18.3949C19.0024 18.3949 18.0233 18.0811 16.8585 17.6976L14.7405 17.0002V12.4936V7.98698L16.8216 7.29565C17.9662 6.91543 18.9453 6.6017 18.9973 6.59849C19.0722 6.59378 19.0919 7.81951 19.0919 12.4938ZM17.9568 7.37035L17.2378 7.61356L17.2179 10.007L17.198 12.4004L17.8989 12.3667C18.2845 12.3481 18.6426 12.3198 18.6946 12.3037C18.7678 12.2809 18.7892 11.6931 18.7892 9.69489C18.7892 8.27621 18.7636 7.11809 18.7324 7.12138C18.7013 7.12459 18.3522 7.23664 17.9568 7.37035ZM15.7432 8.09866L15.0811 8.32313V10.4084V12.4938L15.5541 12.4929C15.8142 12.4925 16.1548 12.4713 16.3108 12.4458L16.5946 12.3995V10.131C16.5946 8.36279 16.5737 7.86373 16.5 7.86836C16.448 7.87157 16.1075 7.97525 15.7432 8.09866ZM15.0987 14.7467L15.1189 16.7009L15.8568 16.945L16.5946 17.1892V15.0384V12.8876L16.2435 12.8401C16.0504 12.8139 15.7093 12.7926 15.4855 12.7926H15.0786L15.0987 14.7467ZM17.2 15.1195V17.3921L17.9417 17.632C18.3497 17.764 18.7072 17.8721 18.7363 17.8721C18.7654 17.8721 18.7892 16.7628 18.7892 15.407V12.942H18.3457C18.1018 12.942 17.7442 12.9206 17.5511 12.8944L17.2 12.8469V15.1195Z" fill="#FE5F49"/>
</svg>
