<svg width="24" height="24" fill="none" xmlns="http://www.w3.org/2000/svg"><path d="M8 18h1.5v-2h2v-1.5h-2v-2H8v2H6V16h2v2zm5-.75h5v-1.5h-5v1.5zm0-2.5h5v-1.5h-5v1.5zm1.1-3.8l1.4-1.4 1.4 1.4 1.05-1.05-1.4-1.45 1.4-1.4L16.9 6l-1.4 1.4L14.1 6l-1.05 1.05 1.4 1.4-1.4 1.45 1.05 1.05zM6.25 9.2h5V7.7h-5v1.5zM5 21c-.55 0-1.021-.196-1.413-.588A1.922 1.922 0 013 19V5c0-.55.196-1.021.588-1.413A1.922 1.922 0 015 3h14c.55 0 1.021.196 1.413.588.392.392.588.863.587 1.412v14c0 .55-.196 1.021-.588 1.413A1.922 1.922 0 0119 21H5z" fill="#fff"/></svg>