<svg width="26" height="26" fill="none" xmlns="http://www.w3.org/2000/svg"><rect x=".5" y=".5" width="25" height="25" rx="4.5" fill="#fff" stroke="#fff"/><path fill-rule="evenodd" clip-rule="evenodd" d="M7.763 8.04a.43.43 0 00-.33.427c-.005.101-.004.744.002 1.43l.011 1.245-.237.294c-.564.7-.942 1.606-1.112 2.67-.114.71-.134 3.533-.025 3.672.063.081.455.088 4.842.088 3.75 0 4.786.015 4.836.067.048.052.611.067 2.47.067 2.233 0 2.416-.007 2.545-.096a.577.577 0 00.187-.23c.03-.082.048-1.937.048-4.725v-4.59l-.147-.175-.147-.174L14.312 8c-3.681-.004-6.46.012-6.55.04zm10.805 4.257l-.013 3.673-1.248.014-1.247.014v-.468c.001-1.583.416-2.953 1.122-3.712.328-.352.751-.641 1.036-.707.201-.047.288-.23.203-.427-.03-.072-.085-.142-.12-.156-.034-.015-2.226-.031-4.87-.037-4.635-.011-4.817-.008-5.09.092l-.282.103-.033-.67a28.446 28.446 0 01-.032-1.031v-.36H18.58l-.013 3.672zm1.827.708v4.38H16.06v-.8h2.78l.147-.157.148-.156V8.624h1.26v4.38zm-10.223-1.607a5.72 5.72 0 00-.822 1.568c-.252.777-.304 1.22-.333 2.83l-.026 1.483H6.57l.025-1.483c.021-1.261.04-1.554.132-1.963.282-1.27 1.101-2.454 1.87-2.701.07-.023.507-.043.97-.046l.845-.004-.24.316zm3.536-.196a6.108 6.108 0 01-.25.344c-.556.725-.917 1.671-1.051 2.757-.05.403-.078 1.053-.078 1.803v1.173H9.542l.03-1.403c.04-1.828.146-2.427.595-3.352.246-.507.566-.895.966-1.172l.313-.217h1.15c.908 0 1.143.014 1.112.067zm2.894.374c-.851 1.188-1.097 2.182-1.097 4.442v1.263l-1.298-.015-1.298-.014.002-1.255c.003-1.41.059-1.934.281-2.642.268-.853.63-1.43 1.173-1.867.424-.34.458-.348 1.556-.35l.996-.003-.315.44z" fill="#FE5F49"/></svg>