<svg width="26" height="26" fill="none" xmlns="http://www.w3.org/2000/svg"><rect x=".5" y=".5" width="25" height="25" rx="4.5" fill="#fff" stroke="#fff"/><path fill-rule="evenodd" clip-rule="evenodd" d="M12.547 7.005c-.042.004-.2.016-.352.026-1.242.085-2.83.403-3.711.742a7.285 7.285 0 00-3.545 2.935 6.5 6.5 0 00-.896 2.5 8.117 8.117 0 00-.029 1.308c.102 1.153.499 2.211 1.2 3.2a7.245 7.245 0 003.762 2.69c.765.235 2.03.47 3 .56.432.04 1.725.046 2.179.01 1.835-.146 3.51-.55 5.117-1.232.33-.14.89-.408 1.108-.53l.128-.071v-1.51c0-.831-.004-1.51-.01-1.51-.005 0-.072.034-.147.078-.951.54-2.12.963-3.226 1.164-.609.111-1.421.17-1.851.136-.987-.08-1.778-.437-2.464-1.112a3.18 3.18 0 01-.6-.817 3.303 3.303 0 01-.014-3.11 3.593 3.593 0 011.702-1.601 3.841 3.841 0 011.693-.358c1.487-.001 3.168.45 4.632 1.244.12.065.233.127.252.136.031.016.033-.061.033-1.504V8.858l-.185-.098c-1.799-.949-3.934-1.548-6.14-1.721-.335-.026-1.463-.05-1.636-.034zm1.037.348c1.139.05 2.079.18 3.11.429a14.65 14.65 0 013.02 1.07l.433.207v1.089c0 .598-.004 1.088-.008 1.088-.005 0-.144-.062-.31-.139a10.624 10.624 0 00-3.83-.936c-1.155-.07-2.093.182-2.957.794a5.01 5.01 0 00-.797.769c-.799 1.036-1.01 2.34-.573 3.54.086.236.298.64.442.844a4.113 4.113 0 002.426 1.633c.344.082.662.117 1.063.117 1.4 0 2.973-.36 4.294-.983a4.38 4.38 0 01.24-.108c.005 0 .01.493.01 1.096v1.096l-.233.116c-1.764.877-3.739 1.407-5.816 1.56a19.68 19.68 0 01-2.046-.008c-1.302-.117-2.72-.417-3.537-.746-1.486-.598-2.718-1.69-3.435-3.043a6.075 6.075 0 01-.683-2.148 7.175 7.175 0 01-.021-1.127c.124-1.54.81-2.945 1.978-4.047.385-.362.64-.56 1.076-.833a7.087 7.087 0 011.636-.75c.383-.12 1.262-.313 1.867-.41.978-.155 1.8-.208 2.651-.17zm-5.41 2.81a2.678 2.678 0 00-1.59.745 2.427 2.427 0 00-.68 1.196c-.029.114-.032.343-.038 2.38-.004 1.518 0 2.284.014 2.343.094.412.436.786.864.945.107.04.33.086.412.086h.056v-2.665c0-2.214.004-2.687.026-2.796a1.19 1.19 0 01.688-.848c.708-.322 1.57.066 1.75.788.05.201.03.476-.049.678a1.245 1.245 0 01-.827.72 1.528 1.528 0 01-.955-.1c-.003 0-.006.305-.006.678v.679l.094.019c.434.087 1.047.043 1.445-.105 1.078-.4 1.744-1.353 1.688-2.417-.054-1.027-.753-1.891-1.794-2.218a3.02 3.02 0 00-1.098-.108zm9.861 2.791v.698h1.237v2.095h2.472l.005-1.042.005-1.043.623-.004.623-.005v-1.395h-4.965v.697zm4.594 0v.35l-.623.004-.623.005v2.094l-.87-.005-.87-.004-.005-1.043-.005-1.043h-1.236v-.716l2.116.005 2.116.004v.35z" fill="#FE5F49"/></svg>