<svg width="26" height="26" fill="none" xmlns="http://www.w3.org/2000/svg"><rect x=".5" y=".5" width="25" height="25" rx="4.5" fill="#fff" stroke="#fff"/><path fill-rule="evenodd" clip-rule="evenodd" d="M16.897 6.803l-2.383.798v9.786l2.421.806 2.422.807.321-.17.322-.17V6.32l-.294-.163c-.162-.09-.324-.16-.36-.158-.035.003-1.138.364-2.449.803zM6 12.493v6.2h10.292v-.249c0-.418-.058-.422-5.098-.422H6.68V7.04l4.333-.004c4.328-.004 4.332-.004 4.786-.175.381-.144.458-.203.478-.37l.024-.198H6v6.2zm13.092 0c0 3.246-.026 5.902-.058 5.902s-1.01-.314-2.175-.697L14.74 17V7.987l2.082-.691c1.144-.38 2.123-.694 2.175-.698.075-.004.095 1.222.095 5.896zM17.957 7.37l-.72.244-.02 2.393-.019 2.393.7-.033c.387-.019.745-.047.797-.063.073-.023.094-.61.094-2.61 0-1.418-.025-2.576-.057-2.573-.03.004-.38.116-.775.25zm-2.214.729l-.662.224v4.171l.473-.001c.26 0 .6-.022.757-.047l.284-.046v-2.27c0-1.768-.021-2.267-.095-2.263-.052.004-.392.107-.757.23zm-.644 6.648l.02 1.954.738.244.738.244v-4.301l-.351-.048a6.85 6.85 0 00-.758-.047h-.407l.02 1.954zm2.101.373v2.272l.742.24c.408.132.765.24.794.24.03 0 .053-1.11.053-2.465v-2.465h-.443c-.244 0-.602-.021-.795-.048l-.351-.047v2.273z" fill="#FE5F49"/></svg>